PathFileType	4	(X/Y/Z)	Patient4_TMGait_0pt3_01_right_16.trc.trc
DataRate	CameraRate	NumFrames	NumMarkers	Units	OrigDataRate	OrigDataStartFrame	OrigNumFrames
52.434456928839	52.434456928839	4	33	mm	52.434456928839	124	       141
Frame#	Time	Sacral			L.Shoulder			Chest			R.Shoulder			Neck			R.ASIS			L.ASIS			R.Thigh.Superior			R.Thigh.Lateral			R.Thigh.Inferior			R.Patella			L.Thigh.Superior			L.Thigh.Lateral			L.Thigh.Inferior			L.Patella			L.Shank.Superior			L.Shank.Lateral			L.Shank.Inferior			R.Shank.Superior			R.Shank.Lateral			R.Shank.Inferior			R.Heel			R.Midfoot.Superior			R.Midfoot.Lateral			R.Toe			L.Heel			L.Midfoot.Lateral			L.Midfoot.Superior			L.Toe			L.Elbow			L.Wrist			R.Elbow			R.Wrist			
		X1	Y1	Z1	X2	Y2	Z2	X3	Y3	Z3	X4	Y4	Z4	X5	Y5	Z5	X6	Y6	Z6	X7	Y7	Z7	X8	Y8	Z8	X9	Y9	Z9	X10	Y10	Z10	X11	Y11	Z11	X12	Y12	Z12	X13	Y13	Z13	X14	Y14	Z14	X15	Y15	Z15	X16	Y16	Z16	X17	Y17	Z17	X18	Y18	Z18	X19	Y19	Z19	X20	Y20	Z20	X21	Y21	Z21	X22	Y22	Z22	X23	Y23	Z23	X24	Y24	Z24	X25	Y25	Z25	X26	Y26	Z26	X27	Y27	Z27	X28	Y28	Z28	X29	Y29	Z29	X30	Y30	Z30	X31	Y31	Z31	X32	Y32	Z32	X33	Y33	Z33	

124	31.095785714286	792.747465316107	999.973638632723	462.217716654104	1023.226768185854	1434.303471565312	349.098001310326	1066.906149565738	1360.406034216994	532.631026557274	933.801132118141	1431.883235046964	672.952020708560	952.724660167678	1490.755452985892	498.536674151854	989.216168892979	938.756408462697	633.492199647646	1039.195142261576	958.643841422193	362.458988538179	1063.469943893097	755.863880745649	612.732312256991	998.235502661584	633.627404388871	665.331114906615	1095.579922827026	594.639501661609	598.211407645994	1115.864612990196	506.859641072600	610.898075487895	1043.226358389439	730.156226549904	392.260274196663	941.255724387310	627.798185210262	317.385601857122	996.494785033157	539.786217931426	391.810390824284	981.596079480446	472.793637094902	400.723193373649	949.055185137854	404.994198112344	389.888045876760	850.797131307596	299.833579708332	333.356186447528	880.935411752152	185.715436441506	411.035790372714	1089.978126271361	416.720241092995	617.838643529405	1018.227811066121	310.688830420680	676.756414593718	1077.263003706740	216.761788069119	626.275709904248	960.866343188877	42.816964662917	592.371014752394	1127.108948995450	103.560510006540	639.161896546491	1040.729624274090	36.517423528455	670.132743023787	1246.260025877165	58.879696964389	672.632359113892	738.163313043331	37.523654939578	450.682404746661	812.844442138855	35.126490668060	370.876321336753	896.982054354750	95.039016604390	399.812044502194	1025.228346154551	42.011385389088	371.609623500977	1175.844391352164	1140.471288517198	211.048794109123	1426.862536650296	1155.374541679420	272.761450908108	751.423266777804	1130.481854760005	721.049878568696	700.857962337254	873.708715954369	731.896739421731	
125	31.114857142857	794.460251984803	999.064681219980	466.371258343806	1023.868835133391	1433.385443359095	353.533319835392	1067.813802877708	1359.852417620091	537.168547215664	934.516531433621	1431.211388958729	677.403505769454	953.374414964900	1489.906541410406	502.928485617040	990.760512088006	937.440042534642	637.869387085048	1041.128588953933	957.937263020802	366.972211914526	1064.995258426531	754.107142108976	615.989770612973	998.702997078254	631.935102337848	667.446253705512	1096.154578696413	593.025201854314	600.527427559787	1115.247567468564	504.892926943152	612.387021818576	1043.902611932003	728.944324322056	395.675193024775	940.805202138021	627.556031148380	320.471509641021	995.317918743766	538.767912836502	394.415853382932	979.914632587071	471.558654867770	403.029512811031	946.491617877941	404.224530530725	391.885515110283	846.961380833895	300.406702571692	334.795300076454	876.129323609584	185.417769921890	411.650913914923	1089.197299393487	414.522106039473	618.875215457463	1017.043100435340	308.714462852587	677.428898164218	1074.662295337766	214.755027167329	625.846656091477	956.209852713840	42.729741900242	591.470411456437	1123.081818655152	102.039138132405	638.209139287140	1035.741298514976	36.395029355774	669.546452866980	1241.674243054631	56.073907813043	672.062025281506	732.367816346826	37.526022016871	450.580643622239	807.131758903369	35.041696529061	370.893945459440	891.308873936435	95.018979098034	399.845643955997	1019.583033488365	41.823917565327	371.570929062804	1178.485034132427	1140.845633388321	215.504700035937	1429.131571405007	1160.602560026615	277.054161443484	754.464485087958	1128.278252742712	726.045361230519	705.114602945692	871.331033349049	737.875642532107	
126	31.133928571429	796.278442525086	998.378930142472	470.932666983529	1024.495399121294	1432.706009550047	358.096755602577	1068.894005185224	1359.525238862115	541.793696317609	935.460884623253	1430.722016699008	682.041770729404	954.090103542886	1489.255161422959	507.479147375692	992.627396436936	936.400033318920	642.421772265660	1043.029917027400	957.423365259258	371.634640909044	1066.922275731853	752.722436384661	619.114451528922	999.864985086110	630.639727583978	669.739054207143	1097.154727296832	591.698706651869	602.720917799294	1115.164958711257	503.078969936790	613.885740994001	1044.736148978989	727.869074038371	399.143855214983	940.540400518873	627.362207763560	323.793573026935	994.605785617129	537.814172813507	397.137433391322	978.825522758918	470.269384251138	405.400088208431	944.320503473945	403.476893161239	393.972260395225	843.317325487990	301.187172662584	336.387299158174	871.470205265307	185.219431440679	412.269463777833	1088.626800998009	412.516090079140	619.916081714496	1015.845201920571	307.126543667030	678.230068789606	1071.605112520729	212.955467035569	625.453567572236	950.584008247456	42.885871133206	590.723471539854	1118.149906903726	100.787811108641	637.417198590213	1029.826273593971	36.463300963939	669.074990009290	1236.212363494066	53.436121114724	671.612790199008	726.591987211377	37.732296849394	450.455134616462	801.450731488802	35.040630016183	370.915307216637	885.720541844560	95.029185490568	399.843519234849	1013.970972489316	41.576252338569	371.508559863797	1180.651899196211	1141.211637488043	219.913060653947	1430.998397577198	1165.045224422100	281.071144027942	757.793909137571	1126.201684536679	731.555242519552	710.056067180897	869.029711870528	744.554101377516	
127	31.153000000000	798.118960306611	997.950181839668	475.900218898285	1025.114370350743	1432.277307308121	362.739390808018	1070.132927875905	1359.428252380811	546.454107741226	936.653022808363	1430.462822964220	686.814523041520	954.887053841330	1488.834592372070	512.133069669430	994.736738778066	935.675860303701	647.130595065264	1044.802709164914	957.116179426402	376.412670146285	1069.081772960522	751.692247078980	622.201423147826	1001.480654292242	629.725296116135	672.282615676148	1098.360888313174	590.636033455134	604.894675429147	1115.397601444942	501.461305778621	615.465470745374	1045.659267855900	726.991227517842	402.683158214528	940.464720344125	627.239182981580	327.324598110383	994.397225726624	536.961293456035	399.950839781220	978.385827957633	468.952746937676	407.783257099923	942.589596608391	402.782636546611	396.113615593467	839.915643818332	302.223148250060	338.128074960635	867.007533271696	185.178441885451	412.878960860893	1088.144730091825	410.755398185223	621.027450606030	1014.623393508547	305.889013650750	679.202665275685	1068.254164435446	211.404086949169	625.178848515103	944.424018594520	43.176884701781	590.189152264978	1112.664424487716	99.814156558908	636.825411901027	1023.440259370853	36.640538223567	668.753584248094	1230.282745558244	51.102891322407	671.309164928377	720.862114036159	38.277022938963	450.311663128843	795.813661899561	35.202158211630	370.940253932822	880.261218588671	95.092496200368	399.795828924567	1008.385686735999	41.263108688939	371.422835201321	1182.349128670381	1141.557223326838	224.272523206375	1432.500854386919	1168.660823294085	284.813674872151	761.307301750834	1124.408091587519	737.515464631633	715.538856221270	866.971727154286	751.866159571618	
